<svg width="40" height="41" viewBox="0 0 40 41" fill="none" xmlns="http://www.w3.org/2000/svg">
<path fill-rule="evenodd" clip-rule="evenodd" d="M20.4512 0.763829C15.1834 0.64614 9.87788 2.58944 5.85786 6.59382C-1.95262 14.3739 -1.95262 26.9879 5.85786 34.768C13.6684 42.5481 26.3317 42.5481 34.1421 34.768C38.1622 30.7637 40.1131 25.4787 39.9949 20.2314C39.9592 18.6433 39.7338 17.0587 39.319 15.514C38.1867 16.5945 37.0155 17.5484 35.8326 18.375C33.1297 20.2637 30.3652 21.4885 27.8602 22.043C24.0483 22.8868 21.4313 22.1066 20 20.681C18.5688 19.2553 17.7856 16.6485 18.6327 12.8513C19.1894 10.3561 20.4189 7.60227 22.315 4.90993C23.1449 3.7316 24.1024 2.56502 25.1871 1.43705C23.6364 1.02386 22.0455 0.79945 20.4512 0.763829ZM31.3137 31.9506C33.8161 29.458 35.3163 26.345 35.8144 23.1087C28.7221 27.1842 21.276 27.5868 17.1716 23.4984C13.0672 19.41 13.4714 11.9928 17.5628 4.92813C14.3138 5.42424 11.1887 6.91859 8.68629 9.41124C2.4379 15.6353 2.4379 25.7265 8.68629 31.9506C14.9347 38.1747 25.0653 38.1747 31.3137 31.9506Z" fill="white"/>
</svg>
