<svg width="40" height="41" viewBox="0 0 40 41" fill="none" xmlns="http://www.w3.org/2000/svg">
<path fill-rule="evenodd" clip-rule="evenodd" d="M20 27.3217C23.6819 27.3217 26.6667 24.3485 26.6667 20.681C26.6667 17.0134 23.6819 14.0402 20 14.0402C16.3181 14.0402 13.3333 17.0134 13.3333 20.681C13.3333 24.3485 16.3181 27.3217 20 27.3217ZM20 30.6421C25.5228 30.6421 30 26.1823 30 20.681C30 15.1796 25.5228 10.7199 20 10.7199C14.4772 10.7199 10 15.1796 10 20.681C10 26.1823 14.4772 30.6421 20 30.6421Z" fill="white"/>
<path fill-rule="evenodd" clip-rule="evenodd" d="M18.3333 0.758789H21.6667V7.50227C21.1207 7.43445 20.5644 7.39951 20 7.39951C19.4356 7.39951 18.8793 7.43445 18.3333 7.50227V0.758789ZM11.8238 10.1889L7.03622 5.41993L4.6792 7.76778L9.46684 12.5368C10.1512 11.6598 10.9435 10.8706 11.8238 10.1889ZM6.76982 19.0208H0V22.3411H6.76982C6.70174 21.7973 6.66667 21.2432 6.66667 20.681C6.66667 20.1187 6.70174 19.5647 6.76982 19.0208ZM9.46684 28.8251L4.67919 33.5942L7.03621 35.942L11.8238 31.173C10.9435 30.4913 10.1512 29.7021 9.46684 28.8251ZM18.3333 33.8597V40.6031H21.6667V33.8597C21.1207 33.9275 20.5644 33.9624 20 33.9624C19.4356 33.9624 18.8793 33.9275 18.3333 33.8597ZM28.176 31.1731L32.9635 35.942L35.3205 33.5941L30.533 28.8253C29.8487 29.7022 29.0564 30.4915 28.176 31.1731ZM33.2302 22.3411H40V19.0208H33.2302C33.2983 19.5646 33.3333 20.1187 33.3333 20.681C33.3333 21.2432 33.2983 21.7973 33.2302 22.3411ZM30.533 12.5366L35.3205 7.76779L32.9635 5.41994L28.176 10.1888C29.0564 10.8705 29.8487 11.6597 30.533 12.5366Z" fill="white"/>
</svg>
